<svg aria-hidden="true" style="position:absolute;width:0;height:0;overflow:hidden" xmlns="http://www.w3.org/2000/svg">
    <defs>
        <symbol id="icon-ph_envelope-light" viewBox="0 0 32 32">
            <path fill="#fff" style="fill:var(--color1, #fff)"
                d="m28.742 6.898-.003-.019a.738.738 0 0 0-.031-.123l-.006-.017a.733.733 0 0 0-.055-.117l-.009-.015a.693.693 0 0 0-.08-.107l-.005-.007-.006-.005a.767.767 0 0 0-.1-.089l-.014-.011a.784.784 0 0 0-.112-.066l-.015-.007a.651.651 0 0 0-.122-.042l-.015-.004a.875.875 0 0 0-.125-.018l-.021-.001L28 6.249H4l-.023.001-.02.001a.661.661 0 0 0-.125.018l-.015.004a.776.776 0 0 0-.123.042l-.014.007a.784.784 0 0 0-.112.066l-.014.011a.767.767 0 0 0-.1.089l-.006.005-.005.007a.693.693 0 0 0-.08.107l-.009.015a.695.695 0 0 0-.055.117l-.006.017a.738.738 0 0 0-.031.123l-.003.019A.876.876 0 0 0 3.251 7v17a1.754 1.754 0 0 0 1.75 1.75h22a1.754 1.754 0 0 0 1.75-1.75V7a.7.7 0 0 0-.008-.102zM27.25 23.295 19.292 16l7.958-7.295v14.59zM4.75 8.705 12.708 16 4.75 23.295V8.705zM16 16.982 5.928 7.75h20.144L16 16.982zm-2.182.036 1.675 1.535a.748.748 0 0 0 1.014 0l1.675-1.535 7.89 7.232H5.928l7.89-7.232z" />
        </symbol>
        <symbol id="icon-clarity_phone-handset-line" viewBox="0 0 32 32">
            <path fill="#fff" style="fill:var(--color1, #fff)"
                d="M24.649 31.502a4.218 4.218 0 0 1-.889-.098 30.14 30.14 0 0 1-14.773-7.778 29.085 29.085 0 0 1-8-14.444 4.074 4.074 0 0 1 1.2-3.804l3.556-3.422a1.78 1.78 0 0 1 1.369-.48 1.77 1.77 0 0 1 1.289.774l4.444 6.569a1.418 1.418 0 0 1-.098 1.689l-2.231 2.667a16.842 16.842 0 0 0 3.707 5.236 17.117 17.117 0 0 0 5.396 3.636l2.764-2.196a1.454 1.454 0 0 1 1.653-.107l6.711 4.338a1.771 1.771 0 0 1 .776 2.085 1.764 1.764 0 0 1-.412.679l-3.467 3.431a4.204 4.204 0 0 1-2.995 1.226zM6.969 3.236 3.413 6.658a2.255 2.255 0 0 0-.667 2.133 27.284 27.284 0 0 0 7.476 13.564 28.365 28.365 0 0 0 13.902 7.316 2.44 2.44 0 0 0 2.222-.658l3.467-3.431-6.48-4.187-2.969 2.364a.888.888 0 0 1-.818.151 17.83 17.83 0 0 1-6.542-4.222 17.33 17.33 0 0 1-4.329-6.4.891.891 0 0 1 .213-.844l2.4-2.871-4.32-6.338z" />
        </symbol>
        <symbol id="icon-clarity_map-marker-line" viewBox="0 0 32 32">
            <path fill="#fff" style="fill:var(--color1, #fff)"
                d="M16 5.973a5.09 5.09 0 0 0-4.996 6.087 5.091 5.091 0 0 0 6.945 3.712 5.095 5.095 0 0 0-1.95-9.8zm0 8.409a3.31 3.31 0 0 1-3.063-2.047 3.316 3.316 0 1 1 6.379-1.269 3.317 3.317 0 0 1-3.315 3.307v.009z" />
            <path fill="#fff" style="fill:var(--color1, #fff)"
                d="M16 1.778A10.477 10.477 0 0 0 5.529 12.205c0 4.151 2.329 7.627 4.036 10.16l.311.462a88.628 88.628 0 0 0 5.458 7.111l.676.791.676-.791a88.86 88.86 0 0 0 5.458-7.111l.311-.471c1.698-2.533 4.027-6 4.027-10.151a10.48 10.48 0 0 0-10.48-10.427zm4.969 19.555-.32.471c-1.529 2.293-3.556 4.862-4.649 6.133-1.049-1.271-3.12-3.84-4.649-6.133l-.311-.471c-1.573-2.347-3.733-5.556-3.733-9.164a8.692 8.692 0 0 1 17.386 0c0 3.644-2.151 6.853-3.724 9.164z" />
        </symbol>
        <symbol id="icon-facebook" viewBox="0 0 17 32">
            <path fill="#fff" style="fill:var(--color1, #fff)"
                d="M10.336 31.988h-6.89v-15.99H.002v-5.512h3.444V7.178c0-4.495 1.945-7.171 7.466-7.171h4.598v5.512h-2.872c-2.152 0-2.294.771-2.294 2.21l-.008 2.757h5.208l-.61 5.512h-4.598v15.99z" />
        </symbol>
        <symbol id="icon-twitter" viewBox="0 0 41 32">
            <path fill="#fff" style="fill:var(--color1, #fff)"
                d="M39.544 3.569a17.041 17.041 0 0 1-4.659 1.195c1.675-.941 2.961-2.432 3.567-4.205a17.034 17.034 0 0 1-5.154 1.845C31.82.924 29.71.002 27.378.002c-4.48 0-8.115 3.405-8.115 7.603 0 .597.072 1.178.211 1.734-6.743-.318-12.721-3.345-16.723-7.944a7.21 7.21 0 0 0-1.097 3.823c0 2.635 1.432 4.966 3.608 6.328a8.516 8.516 0 0 1-3.674-.952v.098c0 3.684 2.795 6.756 6.507 7.454a8.805 8.805 0 0 1-3.663.132c1.032 3.017 4.028 5.218 7.578 5.28-2.776 2.039-6.274 3.253-10.076 3.253-.655 0-1.301-.036-1.935-.105 3.59 2.155 7.855 3.416 12.437 3.416 14.923 0 23.083-11.588 23.083-21.634a21.4 21.4 0 0 0-.024-.984 16.003 16.003 0 0 0 4.049-3.934z" />
        </symbol>
        <symbol id="icon-Linked-In" viewBox="0 0 32 32">
            <path fill="#fff" style="fill:var(--color1, #fff)"
                d="M29.619 30.421H2.381c-1.306 0-2.363-.926-2.363-2.069V3.651c0-1.141 1.058-2.067 2.363-2.067h27.238c1.304 0 2.362.926 2.362 2.067v24.701c0 1.142-1.058 2.069-2.362 2.069zM5.557 25.67h4.707V12.651H5.557V25.67zM7.942 6.376c-1.611 0-2.662.971-2.662 2.25 0 1.248 1.021 2.25 2.6 2.25h.03c1.642 0 2.662-1.002 2.662-2.25-.029-1.278-1.021-2.25-2.63-2.25zm19.295 11.83c0-4-2.323-5.861-5.419-5.861-2.499 0-3.616 1.262-4.242 2.15V12.65h-4.707c.062 1.222 0 13.019 0 13.019h4.707v-7.27c0-.387.03-.778.155-1.054.339-.778 1.115-1.582 2.414-1.582 1.704 0 2.384 1.194 2.384 2.944v6.963h4.707v-7.464zm-9.693-3.667.032-.043v.043h-.032z" />
        </symbol>
        <symbol id="icon-pininterest" viewBox="0 0 24 32">
            <path fill="#fff" style="fill:var(--color1, #fff)"
                d="M12.504 0C4.192 0 .002 5.932.002 10.88c0 2.995 1.139 5.659 3.582 6.653.401.163.76.005.876-.436.081-.305.273-1.076.357-1.398.118-.436.072-.589-.251-.97-.706-.827-1.155-1.898-1.155-3.416 0-4.401 3.308-8.34 8.613-8.34 4.697 0 7.277 2.858 7.277 6.673 0 5.022-2.232 9.26-5.546 9.26-1.829 0-3.198-1.507-2.76-3.355.527-2.205 1.544-4.586 1.544-6.179 0-1.425-.768-2.614-2.36-2.614-1.869 0-3.372 1.927-3.372 4.507 0 1.645.557 2.757.557 2.757l-2.25 9.489c-.669 2.816-.099 6.269-.052 6.619.029.205.295.254.416.099.172-.226 2.4-2.963 3.158-5.699.214-.775 1.229-4.787 1.229-4.787.608 1.154 2.385 2.171 4.273 2.171 5.624 0 9.438-5.105 9.438-11.936 0-5.165-4.394-9.977-11.074-9.977z" />
        </symbol>
    </defs>
</svg>